<svg width="144" height="144" viewBox="0 0 144 144" fill="none" xmlns="http://www.w3.org/2000/svg">
<rect width="144" height="144" fill="#E5E5E5"/>
<g clip-path="url(#clip0_0_1)">
<rect width="1157" height="776" transform="translate(-255 -296)" fill="#003485"/>
<circle cx="-193" cy="257" r="358" fill="#002D78"/>
<circle cx="72" cy="72" r="72" fill="white"/>
<path fill-rule="evenodd" clip-rule="evenodd" d="M103.973 42.6207C109.301 48.1455 113.139 54.9333 115.125 62.3472L73.4202 73.5221C68.1949 72.2518 62.5859 72.2368 57.0255 73.7267C44.6813 77.0344 35.8376 86.8854 33.2265 98.5481C29.8162 93.2345 27.5458 87.2535 26.5784 80.9846C25.4079 73.3989 26.1835 65.6402 28.8325 58.4364C31.4816 51.2326 35.9172 44.8197 41.7232 39.7996C47.5293 34.7794 54.5155 31.3164 62.0264 29.7355C69.5373 28.1546 77.3266 28.5076 84.6637 30.7614C92.0008 33.0152 98.6451 37.0959 103.973 42.6207Z" fill="#003485"/>
<path fill-rule="evenodd" clip-rule="evenodd" d="M32.2965 51.1143C38.1125 41.2184 47.6685 33.5134 59.6317 30.3079C83.8033 23.8311 108.649 38.1756 115.125 62.3472C115.402 63.379 115.64 64.412 115.842 65.4448C107.962 78.8092 93.4195 87.7759 76.7824 87.7759C54.7159 87.7759 36.3335 72.0017 32.2965 51.1143Z" fill="#003485"/>
<path fill-rule="evenodd" clip-rule="evenodd" d="M49.1736 34.7924C59.1583 29.1303 71.2865 27.2356 83.2497 30.4412C107.421 36.9179 121.766 61.7633 115.289 85.9349C115.013 86.9667 114.703 87.9806 114.361 88.9757C100.855 96.6099 83.7769 97.1039 69.3687 88.7853C50.2585 77.752 42.226 54.9 49.1736 34.7924Z" fill="#003485"/>
<path fill-rule="evenodd" clip-rule="evenodd" d="M59.6317 30.3079C47.6685 33.5134 38.1125 41.2184 32.2965 51.1143C35.6316 68.3697 48.7567 82.1354 65.6614 86.4011C49.245 74.688 42.6937 53.5465 49.1736 34.7925C59.1583 29.1304 71.2866 27.2357 83.2498 30.4412C88.8294 31.9362 93.8854 34.4101 98.2825 37.6284C87.5699 29.7254 73.4901 26.5945 59.6317 30.3079Z" fill="white"/>
<path d="M65.7046 52.9727C66.7455 56.8574 64.4402 60.8504 60.5554 61.8913C56.6707 62.9322 52.6777 60.6269 51.6368 56.7422C50.5959 52.8574 52.9013 48.8644 56.786 47.8235C60.6707 46.7826 64.6637 49.088 65.7046 52.9727Z" fill="white"/>
</g>
<defs>
<clipPath id="clip0_0_1">
<rect width="1157" height="776" fill="white" transform="translate(-255 -296)"/>
</clipPath>
</defs>
</svg>
