<svg width="186" height="186" viewBox="0 0 186 186" fill="none" xmlns="http://www.w3.org/2000/svg">
<circle cx="93" cy="93" r="93" fill="#D4EBFF"/>
<path fill-rule="evenodd" clip-rule="evenodd" d="M134.806 55.0517C141.689 62.1879 146.645 70.9554 149.211 80.5317L95.3421 94.9659C88.5927 93.3252 81.3476 93.3058 74.1655 95.2303C58.2208 99.5026 46.7979 112.227 43.4251 127.291C39.0201 120.428 36.0876 112.702 34.8381 104.605C33.3261 94.8069 34.3279 84.7852 37.7496 75.4803C41.1712 66.1753 46.9006 57.8921 54.4001 51.4077C61.8996 44.9233 70.9234 40.4503 80.625 38.4083C90.3265 36.3663 100.388 36.8223 109.865 39.7334C119.342 42.6446 127.924 47.9155 134.806 55.0517Z" fill="#003485"/>
<path fill-rule="evenodd" clip-rule="evenodd" d="M42.2239 66.0226C49.7362 53.2405 62.0794 43.2882 77.5318 39.1477C108.753 30.7819 140.845 49.3102 149.211 80.5318C149.568 81.8645 149.876 83.1989 150.137 84.5329C139.959 101.795 121.175 113.377 99.6849 113.377C71.1822 113.377 47.4384 93.0022 42.2239 66.0226Z" fill="#003049"/>
<path fill-rule="evenodd" clip-rule="evenodd" d="M64.0234 44.9403C76.9203 37.6268 92.586 35.1794 108.038 39.3199C139.26 47.6857 157.788 79.7776 149.423 110.999C149.065 112.332 148.665 113.642 148.223 114.927C130.778 124.788 108.719 125.426 90.1088 114.681C65.4248 100.43 55.0495 70.9126 64.0234 44.9403Z" fill="#003485"/>
<path fill-rule="evenodd" clip-rule="evenodd" d="M77.5318 39.1477C62.0794 43.2882 49.7362 53.2405 42.2239 66.0226C46.5317 88.3108 63.485 106.092 85.3202 111.601C64.1157 96.472 55.6537 69.1643 64.0235 44.9403C76.9204 37.6268 92.5861 35.1794 108.039 39.3199C115.246 41.251 121.776 44.4463 127.456 48.6034C113.619 38.3953 95.4322 34.3513 77.5318 39.1477Z" fill="#0D47A1"/>
<path d="M85.376 68.4231C86.7205 73.4408 83.7427 78.5985 78.725 79.943C73.7072 81.2875 68.5496 78.3097 67.2051 73.2919C65.8606 68.2742 68.8383 63.1165 73.8561 61.772C78.8738 60.4275 84.0315 63.4053 85.376 68.4231Z" fill="#0D47A1"/>
</svg>
