<svg width="647" height="144" viewBox="0 0 647 144" fill="none" xmlns="http://www.w3.org/2000/svg">
<circle cx="72" cy="72" r="72" fill="white"/>
<path fill-rule="evenodd" clip-rule="evenodd" d="M103.973 42.6207C109.301 48.1455 113.139 54.9333 115.125 62.3472L73.4202 73.5221C68.1949 72.2518 62.5859 72.2368 57.0255 73.7267C44.6813 77.0344 35.8376 86.8854 33.2265 98.5481C29.8162 93.2345 27.5458 87.2535 26.5784 80.9846C25.4079 73.3989 26.1835 65.6402 28.8325 58.4364C31.4816 51.2326 35.9172 44.8197 41.7232 39.7996C47.5293 34.7794 54.5155 31.3164 62.0264 29.7355C69.5373 28.1546 77.3266 28.5076 84.6637 30.7614C92.0008 33.0152 98.6451 37.0959 103.973 42.6207Z" fill="#003485"/>
<path fill-rule="evenodd" clip-rule="evenodd" d="M32.2965 51.1143C38.1125 41.2184 47.6685 33.5134 59.6317 30.3079C83.8033 23.8311 108.649 38.1756 115.125 62.3472C115.402 63.379 115.64 64.412 115.842 65.4448C107.962 78.8092 93.4195 87.7759 76.7824 87.7759C54.7159 87.7759 36.3335 72.0017 32.2965 51.1143Z" fill="#003485"/>
<path fill-rule="evenodd" clip-rule="evenodd" d="M49.1736 34.7924C59.1583 29.1303 71.2865 27.2356 83.2497 30.4412C107.421 36.9179 121.766 61.7633 115.289 85.9349C115.013 86.9667 114.703 87.9806 114.361 88.9757C100.855 96.6099 83.7769 97.1039 69.3687 88.7853C50.2585 77.752 42.226 54.9 49.1736 34.7924Z" fill="#003485"/>
<path fill-rule="evenodd" clip-rule="evenodd" d="M59.6317 30.3079C47.6685 33.5134 38.1125 41.2184 32.2965 51.1143C35.6316 68.3697 48.7567 82.1354 65.6614 86.4011C49.245 74.688 42.6937 53.5465 49.1736 34.7925C59.1583 29.1304 71.2866 27.2357 83.2498 30.4412C88.8294 31.9362 93.8854 34.4101 98.2825 37.6284C87.5699 29.7254 73.4901 26.5945 59.6317 30.3079Z" fill="white"/>
<path d="M65.7046 52.9727C66.7455 56.8574 64.4402 60.8504 60.5554 61.8913C56.6707 62.9322 52.6777 60.6269 51.6368 56.7422C50.5959 52.8574 52.9013 48.8644 56.786 47.8235C60.6707 46.7826 64.6637 49.088 65.7046 52.9727Z" fill="white"/>
<path d="M169.364 80.5655V103.539H165V42.1845H182.177C184.839 42.1845 187.376 42.6766 189.791 43.6607C192.205 44.6448 194.371 46.0288 196.29 47.8125C198.147 49.5962 199.571 51.6567 200.561 53.9941C201.613 56.3314 202.139 58.7917 202.139 61.375C202.139 63.9583 201.613 66.4494 200.561 68.8482C199.571 71.1855 198.147 73.2153 196.29 74.9375C194.371 76.7212 192.205 78.1052 189.791 79.0893C187.376 80.0734 184.839 80.5655 182.177 80.5655H169.364ZM169.364 46.4286V76.506H182.177C186.386 76.506 190.069 75.0298 193.226 72.0774C194.65 70.7242 195.764 69.125 196.569 67.2798C197.373 65.4345 197.776 63.4663 197.776 61.375C197.776 59.2837 197.373 57.3462 196.569 55.5625C195.764 53.7173 194.65 52.1181 193.226 50.7649C190.131 47.874 186.448 46.4286 182.177 46.4286H169.364Z" fill="white"/>
<path d="M243.015 103.539V75.3988C243.015 73.5536 242.643 71.8006 241.9 70.1399C241.219 68.4792 240.229 67.003 238.929 65.7113C237.629 64.4812 236.113 63.5278 234.38 62.8512C232.646 62.1131 230.851 61.744 228.994 61.744C225.033 61.744 221.721 63.0665 219.06 65.7113C217.76 67.003 216.738 68.4792 215.996 70.1399C215.253 71.8006 214.881 73.5536 214.881 75.3988V103.539H210.518V42H214.881V65.0655C217.357 62.2361 219.679 60.2986 221.845 59.253C224.073 58.1458 226.457 57.5923 228.994 57.5923C231.532 57.5923 233.915 58.0536 236.144 58.9762C238.372 59.8373 240.322 61.0982 241.993 62.7589C243.726 64.4811 245.057 66.4187 245.986 68.5714C246.914 70.7242 247.378 73 247.378 75.3988V103.539H243.015Z" fill="white"/>
<path d="M298.359 103.539V92.9286C296.007 96.7421 293.221 99.5407 290.002 101.324C286.846 103.108 283.224 104 279.139 104C275.92 104 272.887 103.416 270.04 102.247C267.255 101.078 264.779 99.4177 262.612 97.2649C260.446 95.1736 258.743 92.7133 257.505 89.8839C256.329 86.9931 255.741 83.9792 255.741 80.8423C255.741 77.7054 256.329 74.7222 257.505 71.8929C258.743 69.002 260.446 66.4802 262.612 64.3274C264.779 62.1746 267.255 60.5139 270.04 59.3452C272.887 58.1766 275.92 57.5923 279.139 57.5923C283.596 57.5923 287.434 58.4534 290.652 60.1756C293.933 61.8978 296.502 64.4504 298.359 67.8333V58.6994H302.63V103.539H298.359ZM279.139 61.744C276.539 61.744 274.032 62.2361 271.618 63.2202C269.266 64.2044 267.224 65.5575 265.49 67.2798C263.757 69.002 262.395 71.0625 261.405 73.4613C260.415 75.7986 259.92 78.2589 259.92 80.8423C259.92 83.4256 260.415 85.8859 261.405 88.2232C262.395 90.5605 263.757 92.5903 265.49 94.3125C267.224 96.0347 269.266 97.3879 271.618 98.372C274.032 99.3562 276.539 99.8482 279.139 99.8482C281.677 99.8482 284.122 99.3562 286.474 98.372C288.826 97.3879 290.869 96.0347 292.602 94.3125C294.335 92.5903 295.697 90.5605 296.688 88.2232C297.74 85.8859 298.266 83.4256 298.266 80.8423C298.266 78.2589 297.771 75.7986 296.78 73.4613C295.79 71.0625 294.428 69.002 292.695 67.2798C290.962 65.5575 288.919 64.2044 286.567 63.2202C284.215 62.2361 281.739 61.744 279.139 61.744Z" fill="white"/>
<path d="M311.889 103.539V42.1845H316.16V103.539H311.889Z" fill="white"/>
<path d="M348.145 104C344.926 104 341.893 103.416 339.046 102.247C336.261 101.017 333.754 99.3254 331.525 97.1726C329.359 95.0813 327.657 92.621 326.419 89.7917C325.181 86.9008 324.562 83.8869 324.562 80.75C324.562 77.6131 325.181 74.63 326.419 71.8006C327.657 68.9097 329.359 66.4187 331.525 64.3274C333.754 62.1746 336.261 60.5139 339.046 59.3452C341.893 58.1151 344.926 57.5 348.145 57.5C351.426 57.5 354.49 58.1151 357.337 59.3452C360.246 60.5754 362.815 62.3284 365.044 64.6042L361.237 66.8185C359.504 65.1577 357.523 63.8968 355.295 63.0357C353.066 62.1746 350.683 61.744 348.145 61.744C345.545 61.744 343.069 62.2361 340.717 63.2202C338.427 64.2044 336.384 65.5575 334.589 67.2798C332.794 69.002 331.371 71.0317 330.318 73.369C329.328 75.7063 328.833 78.1667 328.833 80.75C328.833 83.3333 329.328 85.7936 330.318 88.131C331.371 90.4683 332.794 92.498 334.589 94.2202C336.384 95.9425 338.427 97.2956 340.717 98.2798C343.069 99.2639 345.545 99.756 348.145 99.756C350.683 99.756 353.066 99.3254 355.295 98.4643C357.523 97.6032 359.504 96.3423 361.237 94.6815L365.044 96.8958C362.815 99.1716 360.246 100.925 357.337 102.155C354.49 103.385 351.426 104 348.145 104Z" fill="white"/>
<path d="M393.117 104C389.96 104 386.958 103.385 384.11 102.155C381.263 100.925 378.756 99.2331 376.589 97.0804C374.423 94.9276 372.721 92.4365 371.483 89.6071C370.245 86.7778 369.626 83.7946 369.626 80.6577C369.626 77.4593 370.245 74.4147 371.483 71.5238C372.721 68.6329 374.423 66.1111 376.589 63.9583C378.756 61.8056 381.263 60.1448 384.11 58.9762C386.958 57.746 389.96 57.131 393.117 57.131C396.335 57.131 399.399 57.746 402.309 58.9762C405.218 60.1448 407.756 61.8056 409.922 63.9583C412.089 66.1111 413.76 68.6329 414.936 71.5238C416.174 74.4147 416.793 77.4593 416.793 80.6577C416.793 83.7946 416.174 86.7778 414.936 89.6071C413.76 92.4365 412.089 94.9276 409.922 97.0804C407.756 99.2331 405.218 100.925 402.309 102.155C399.399 103.385 396.335 104 393.117 104ZM393.117 61.2827C390.517 61.2827 388.041 61.7748 385.689 62.7589C383.398 63.7431 381.356 65.127 379.561 66.9107C377.766 68.6944 376.342 70.7857 375.29 73.1845C374.299 75.5833 373.804 78.0744 373.804 80.6577C373.804 83.2411 374.299 85.7014 375.29 88.0387C376.342 90.376 377.766 92.4365 379.561 94.2202C381.356 96.004 383.398 97.4186 385.689 98.4643C388.041 99.4484 390.517 99.9405 393.117 99.9405C395.716 99.9405 398.223 99.4484 400.637 98.4643C403.051 97.4186 405.125 96.004 406.858 94.2202C408.653 92.4365 410.046 90.376 411.036 88.0387C412.027 85.7014 412.522 83.2411 412.522 80.6577C412.522 78.0744 411.996 75.5833 410.943 73.1845C409.953 70.7857 408.591 68.6944 406.858 66.9107C405.125 65.127 403.051 63.7431 400.637 62.7589C398.223 61.7748 395.716 61.2827 393.117 61.2827Z" fill="white"/>
<path d="M457.636 103.539V75.3988C457.636 73.5536 457.265 71.8006 456.522 70.1399C455.841 68.4792 454.851 67.003 453.551 65.7113C452.251 64.4196 450.703 63.4355 448.908 62.7589C447.175 62.0208 445.38 61.6518 443.523 61.6518C441.047 61.6518 438.726 62.2669 436.559 63.497C434.393 64.7272 432.66 66.3879 431.36 68.4792C430.06 70.5704 429.41 72.877 429.41 75.3988V103.539H425.139V58.6994H429.41V64.9732C431.143 62.2669 433.248 60.3294 435.724 59.1607C438.262 57.9921 440.861 57.4077 443.523 57.4077C445.999 57.4077 448.351 57.8691 450.58 58.7917C452.87 59.7143 454.882 61.006 456.615 62.6667C458.286 64.3274 459.586 66.2649 460.514 68.4792C461.505 70.6935 462 73 462 75.3988V103.539H457.636Z" fill="white"/>
<path d="M541.406 54.9503L523.078 101.534H516.379L506.796 77.4037L497.213 101.534H490.515L472 54.9503H478.885L493.864 92.6832L503.354 68.8323L497.865 54.9503H504.749L519.728 92.6832L534.615 54.9503H541.406Z" fill="white"/>
<path d="M552.165 42C553.282 42 554.243 42.4037 555.049 43.2112C555.856 44.0186 556.259 44.9814 556.259 46.0994C556.259 47.2795 555.856 48.2733 555.049 49.0807C554.243 49.8882 553.282 50.2919 552.165 50.2919C550.987 50.2919 549.994 49.8882 549.188 49.0807C548.382 48.2733 547.979 47.2795 547.979 46.0994C547.979 44.9814 548.382 44.0186 549.188 43.2112C549.994 42.4037 550.987 42 552.165 42ZM555.329 54.9503V101.534H548.909V54.9503H555.329Z" fill="white"/>
<path d="M568.371 89.0497C568.867 90.7888 569.642 92.1553 570.697 93.1491C572.433 94.764 574.976 95.5714 578.326 95.5714C581.241 95.5714 583.598 94.8882 585.397 93.5217C587.195 92.1553 588.095 90.3851 588.095 88.2112C588.095 86.1615 587.691 84.6398 586.885 83.646C586.079 82.6522 585.024 82.0311 583.722 81.7826C582.481 81.4721 580.745 81.2857 578.512 81.2236C575.286 81.0373 572.65 80.6957 570.603 80.1988C568.557 79.6398 566.696 78.4286 565.021 76.5652C562.974 74.0186 561.951 71.2236 561.951 68.1801C561.951 67.4348 561.982 66.8758 562.044 66.5031C562.54 62.5901 564.184 59.6087 566.975 57.559C569.766 55.4472 573.519 54.3913 578.233 54.3913H578.326C581.799 54.3913 584.621 55.0435 586.792 56.3478C588.963 57.6522 590.638 59.236 591.816 61.0994C593.057 63.1491 593.832 65.2919 594.142 67.528H587.629C587.505 66.6584 587.102 65.6335 586.42 64.4534C584.869 62.0932 582.171 60.8509 578.326 60.7267C574.418 60.7267 571.844 61.3789 570.603 62.6832C569.363 63.9876 568.619 65.5093 568.371 67.2484C568.309 67.4969 568.278 67.8385 568.278 68.2733C568.278 69.764 568.805 71.0994 569.859 72.2795C570.728 73.3354 571.844 74.0497 573.209 74.4224C574.573 74.7329 576.527 74.9814 579.07 75.1677C581.117 75.2919 582.853 75.4783 584.28 75.7267C585.769 75.9752 587.164 76.441 588.467 77.1242C592.498 79.2981 594.514 82.9938 594.514 88.2112C594.514 90.0124 594.142 91.7516 593.398 93.4286C592.716 95.0435 591.723 96.472 590.421 97.7143C587.505 100.571 583.505 102 578.419 102C573.457 102 569.425 100.602 566.324 97.8075C563.905 95.4472 562.416 92.528 561.858 89.0497H568.371Z" fill="white"/>
<path d="M606.808 81.6894C607.552 85.6646 609.506 88.9876 612.669 91.6584C615.832 94.2671 619.461 95.5714 623.554 95.5714C626.594 95.5714 629.385 94.8571 631.928 93.4286C634.471 92 636.518 90.0435 638.068 87.559L643.558 90.7267C641.449 94.1429 638.627 96.8758 635.091 98.9255C631.556 100.975 627.71 102 623.554 102C619.337 102 615.429 100.944 611.832 98.8323C608.234 96.7205 605.381 93.8634 603.272 90.2609C601.163 86.6584 600.109 82.7453 600.109 78.5217C600.109 74.236 601.163 70.323 603.272 66.7826C605.381 63.1801 608.234 60.323 611.832 58.2112C615.429 56.0994 619.337 55.0435 623.554 55.0435C627.772 55.0435 631.68 56.0994 635.277 58.2112C638.875 60.323 641.728 63.1801 643.837 66.7826C645.946 70.323 647 74.236 647 78.5217C647 79.2671 646.938 80.323 646.814 81.6894H606.808ZM623.554 61.3789C620.825 61.3789 618.158 62.0311 615.553 63.3354C612.948 64.5776 610.839 66.3168 609.227 68.5528C607.614 70.7267 606.808 73.087 606.808 75.6335H640.301C640.301 73.087 639.495 70.7267 637.882 68.5528C636.27 66.3168 634.161 64.5776 631.556 63.3354C629.013 62.0311 626.346 61.3789 623.554 61.3789Z" fill="white"/>
</svg>
