<svg width="279" height="62" viewBox="0 0 279 62" fill="none" xmlns="http://www.w3.org/2000/svg">
<circle cx="31" cy="31" r="31" fill="#D4EBFF"/>
<path fill-rule="evenodd" clip-rule="evenodd" d="M44.9355 18.3506C47.2295 20.7293 48.8817 23.6518 49.7371 26.8439L31.7807 31.6553C29.5309 31.1084 27.1159 31.1019 24.7218 31.7434C19.4069 33.1676 15.5993 37.409 14.475 42.4304C13.0067 40.1426 12.0292 37.5675 11.6127 34.8684C11.1087 31.6023 11.4426 28.2617 12.5832 25.1601C13.7237 22.0584 15.6335 19.2974 18.1334 17.1359C20.6332 14.9744 23.6411 13.4834 26.875 12.8028C30.1088 12.1221 33.4626 12.2741 36.6216 13.2445C39.7807 14.2149 42.6414 15.9718 44.9355 18.3506Z" fill="#1E88E5"/>
<path fill-rule="evenodd" clip-rule="evenodd" d="M14.0746 22.0075C16.5787 17.7468 20.6931 14.4294 25.8439 13.0492C36.2512 10.2606 46.9485 16.4367 49.7371 26.8439C49.8561 27.2882 49.9588 27.733 50.0455 28.1776C46.653 33.9317 40.3915 37.7924 33.2283 37.7924C23.7274 37.7924 15.8128 31.0007 14.0746 22.0075Z" fill="#003049"/>
<path fill-rule="evenodd" clip-rule="evenodd" d="M21.3411 14.9801C25.6401 12.5422 30.862 11.7265 36.0128 13.1066C46.42 15.8952 52.5961 26.5925 49.8075 36.9997C49.6885 37.444 49.555 37.8805 49.4078 38.309C43.5927 41.5959 36.2398 41.8086 30.0363 38.227C21.8083 33.4766 18.3498 23.6375 21.3411 14.9801Z" fill="#1E88E5"/>
<path fill-rule="evenodd" clip-rule="evenodd" d="M25.8439 13.0492C20.6931 14.4294 16.5787 17.7468 14.0746 22.0075C15.5106 29.4369 21.1617 35.3639 28.4401 37.2005C21.3719 32.1573 18.5512 23.0548 21.3412 14.9801C25.6401 12.5422 30.862 11.7265 36.0128 13.1066C38.4152 13.7503 40.5921 14.8154 42.4853 16.2011C37.8729 12.7984 31.8107 11.4504 25.8439 13.0492Z" fill="#0D47A1"/>
<path d="M28.4587 22.8077C28.9068 24.4803 27.9142 26.1995 26.2417 26.6476C24.5691 27.0958 22.8499 26.1032 22.4017 24.4306C21.9535 22.758 22.9461 21.0388 24.6187 20.5907C26.2913 20.1425 28.0105 21.1351 28.4587 22.8077Z" fill="#0D47A1"/>
<path d="M72.88 34.72V44.68H71V18.08H78.4C79.5467 18.08 80.64 18.2933 81.68 18.72C82.72 19.1467 83.6533 19.7467 84.48 20.52C85.28 21.2933 85.8933 22.1867 86.32 23.2C86.7733 24.2133 87 25.28 87 26.4C87 27.52 86.7733 28.6 86.32 29.64C85.8933 30.6533 85.28 31.5333 84.48 32.28C83.6533 33.0533 82.72 33.6533 81.68 34.08C80.64 34.5067 79.5467 34.72 78.4 34.72H72.88ZM72.88 19.92V32.96H78.4C80.2133 32.96 81.8 32.32 83.16 31.04C83.7733 30.4533 84.2533 29.76 84.6 28.96C84.9467 28.16 85.12 27.3067 85.12 26.4C85.12 25.4933 84.9467 24.6533 84.6 23.88C84.2533 23.08 83.7733 22.3867 83.16 21.8C81.8267 20.5467 80.24 19.92 78.4 19.92H72.88Z" fill="#1E88E5"/>
<path d="M104.609 44.68V32.48C104.609 31.68 104.449 30.92 104.129 30.2C103.836 29.48 103.409 28.84 102.849 28.28C102.289 27.7467 101.636 27.3333 100.889 27.04C100.143 26.72 99.3694 26.56 98.5694 26.56C96.8627 26.56 95.436 27.1333 94.2894 28.28C93.7294 28.84 93.2894 29.48 92.9694 30.2C92.6494 30.92 92.4894 31.68 92.4894 32.48V44.68H90.6094V18H92.4894V28C93.556 26.7733 94.556 25.9333 95.4894 25.48C96.4494 25 97.476 24.76 98.5694 24.76C99.6627 24.76 100.689 24.96 101.649 25.36C102.609 25.7333 103.449 26.28 104.169 27C104.916 27.7467 105.489 28.5867 105.889 29.52C106.289 30.4533 106.489 31.44 106.489 32.48V44.68H104.609Z" fill="#1E88E5"/>
<path d="M128.452 44.68V40.08C127.439 41.7333 126.239 42.9467 124.852 43.72C123.492 44.4933 121.932 44.88 120.172 44.88C118.786 44.88 117.479 44.6267 116.252 44.12C115.052 43.6133 113.986 42.8933 113.052 41.96C112.119 41.0533 111.386 39.9867 110.852 38.76C110.346 37.5067 110.092 36.2 110.092 34.84C110.092 33.48 110.346 32.1867 110.852 30.96C111.386 29.7067 112.119 28.6133 113.052 27.68C113.986 26.7467 115.052 26.0267 116.252 25.52C117.479 25.0133 118.786 24.76 120.172 24.76C122.092 24.76 123.746 25.1333 125.132 25.88C126.546 26.6267 127.652 27.7333 128.452 29.2V25.24H130.292V44.68H128.452ZM120.172 26.56C119.052 26.56 117.972 26.7733 116.932 27.2C115.919 27.6267 115.039 28.2133 114.292 28.96C113.546 29.7067 112.959 30.6 112.532 31.64C112.106 32.6533 111.892 33.72 111.892 34.84C111.892 35.96 112.106 37.0267 112.532 38.04C112.959 39.0533 113.546 39.9333 114.292 40.68C115.039 41.4267 115.919 42.0133 116.932 42.44C117.972 42.8667 119.052 43.08 120.172 43.08C121.266 43.08 122.319 42.8667 123.332 42.44C124.346 42.0133 125.226 41.4267 125.972 40.68C126.719 39.9333 127.306 39.0533 127.732 38.04C128.186 37.0267 128.412 35.96 128.412 34.84C128.412 33.72 128.199 32.6533 127.772 31.64C127.346 30.6 126.759 29.7067 126.012 28.96C125.266 28.2133 124.386 27.6267 123.372 27.2C122.359 26.7733 121.292 26.56 120.172 26.56Z" fill="#1E88E5"/>
<path d="M134.281 44.68V18.08H136.121V44.68H134.281Z" fill="#1E88E5"/>
<path d="M149.901 44.88C148.514 44.88 147.207 44.6267 145.981 44.12C144.781 43.5867 143.701 42.8533 142.741 41.92C141.807 41.0133 141.074 39.9467 140.541 38.72C140.007 37.4667 139.741 36.16 139.741 34.8C139.741 33.44 140.007 32.1467 140.541 30.92C141.074 29.6667 141.807 28.5867 142.741 27.68C143.701 26.7467 144.781 26.0267 145.981 25.52C147.207 24.9867 148.514 24.72 149.901 24.72C151.314 24.72 152.634 24.9867 153.861 25.52C155.114 26.0533 156.221 26.8133 157.181 27.8L155.541 28.76C154.794 28.04 153.941 27.4933 152.981 27.12C152.021 26.7467 150.994 26.56 149.901 26.56C148.781 26.56 147.714 26.7733 146.701 27.2C145.714 27.6267 144.834 28.2133 144.061 28.96C143.287 29.7067 142.674 30.5867 142.221 31.6C141.794 32.6133 141.581 33.68 141.581 34.8C141.581 35.92 141.794 36.9867 142.221 38C142.674 39.0133 143.287 39.8933 144.061 40.64C144.834 41.3867 145.714 41.9733 146.701 42.4C147.714 42.8267 148.781 43.04 149.901 43.04C150.994 43.04 152.021 42.8533 152.981 42.48C153.941 42.1067 154.794 41.56 155.541 40.84L157.181 41.8C156.221 42.7867 155.114 43.5467 153.861 44.08C152.634 44.6133 151.314 44.88 149.901 44.88Z" fill="#1E88E5"/>
<path d="M169.275 44.88C167.915 44.88 166.621 44.6133 165.395 44.08C164.168 43.5467 163.088 42.8133 162.155 41.88C161.221 40.9467 160.488 39.8667 159.955 38.64C159.421 37.4133 159.155 36.12 159.155 34.76C159.155 33.3733 159.421 32.0533 159.955 30.8C160.488 29.5467 161.221 28.4533 162.155 27.52C163.088 26.5867 164.168 25.8667 165.395 25.36C166.621 24.8267 167.915 24.56 169.275 24.56C170.661 24.56 171.981 24.8267 173.235 25.36C174.488 25.8667 175.581 26.5867 176.515 27.52C177.448 28.4533 178.168 29.5467 178.675 30.8C179.208 32.0533 179.475 33.3733 179.475 34.76C179.475 36.12 179.208 37.4133 178.675 38.64C178.168 39.8667 177.448 40.9467 176.515 41.88C175.581 42.8133 174.488 43.5467 173.235 44.08C171.981 44.6133 170.661 44.88 169.275 44.88ZM169.275 26.36C168.155 26.36 167.088 26.5733 166.075 27C165.088 27.4267 164.208 28.0267 163.435 28.8C162.661 29.5733 162.048 30.48 161.595 31.52C161.168 32.56 160.955 33.64 160.955 34.76C160.955 35.88 161.168 36.9467 161.595 37.96C162.048 38.9733 162.661 39.8667 163.435 40.64C164.208 41.4133 165.088 42.0267 166.075 42.48C167.088 42.9067 168.155 43.12 169.275 43.12C170.395 43.12 171.475 42.9067 172.515 42.48C173.555 42.0267 174.448 41.4133 175.195 40.64C175.968 39.8667 176.568 38.9733 176.995 37.96C177.421 36.9467 177.635 35.88 177.635 34.76C177.635 33.64 177.408 32.56 176.955 31.52C176.528 30.48 175.941 29.5733 175.195 28.8C174.448 28.0267 173.555 27.4267 172.515 27C171.475 26.5733 170.395 26.36 169.275 26.36Z" fill="#1E88E5"/>
<path d="M197.07 44.68V32.48C197.07 31.68 196.91 30.92 196.59 30.2C196.297 29.48 195.87 28.84 195.31 28.28C194.75 27.72 194.084 27.2933 193.31 27C192.564 26.68 191.79 26.52 190.99 26.52C189.924 26.52 188.924 26.7867 187.99 27.32C187.057 27.8533 186.31 28.5733 185.75 29.48C185.19 30.3867 184.91 31.3867 184.91 32.48V44.68H183.07V25.24H184.91V27.96C185.657 26.7867 186.564 25.9467 187.63 25.44C188.724 24.9333 189.844 24.68 190.99 24.68C192.057 24.68 193.07 24.88 194.03 25.28C195.017 25.68 195.884 26.24 196.63 26.96C197.35 27.68 197.91 28.52 198.31 29.48C198.737 30.44 198.95 31.44 198.95 32.48V44.68H197.07Z" fill="#1E88E5"/>
<path d="M233.44 23.56L225.56 43.56H222.68L218.56 33.2L214.44 43.56H211.56L203.6 23.56H206.56L213 39.76L217.08 29.52L214.72 23.56H217.68L224.12 39.76L230.52 23.56H233.44Z" fill="#003485"/>
<path d="M238.066 18C238.546 18 238.959 18.1733 239.306 18.52C239.652 18.8667 239.826 19.28 239.826 19.76C239.826 20.2667 239.652 20.6933 239.306 21.04C238.959 21.3867 238.546 21.56 238.066 21.56C237.559 21.56 237.132 21.3867 236.786 21.04C236.439 20.6933 236.266 20.2667 236.266 19.76C236.266 19.28 236.439 18.8667 236.786 18.52C237.132 18.1733 237.559 18 238.066 18ZM239.426 23.56V43.56H236.666V23.56H239.426Z" fill="#003485"/>
<path d="M245.033 38.2C245.246 38.9467 245.579 39.5333 246.033 39.96C246.779 40.6533 247.873 41 249.313 41C250.566 41 251.579 40.7067 252.353 40.12C253.126 39.5333 253.513 38.7733 253.513 37.84C253.513 36.96 253.339 36.3067 252.993 35.88C252.646 35.4533 252.193 35.1867 251.633 35.08C251.099 34.9467 250.353 34.8667 249.393 34.84C248.006 34.76 246.873 34.6133 245.993 34.4C245.113 34.16 244.313 33.64 243.593 32.84C242.713 31.7467 242.273 30.5467 242.273 29.24C242.273 28.92 242.286 28.68 242.313 28.52C242.526 26.84 243.233 25.56 244.433 24.68C245.633 23.7733 247.246 23.32 249.273 23.32H249.313C250.806 23.32 252.019 23.6 252.953 24.16C253.886 24.72 254.606 25.4 255.113 26.2C255.646 27.08 255.979 28 256.113 28.96H253.313C253.259 28.5867 253.086 28.1467 252.793 27.64C252.126 26.6267 250.966 26.0933 249.313 26.04C247.633 26.04 246.526 26.32 245.993 26.88C245.459 27.44 245.139 28.0933 245.033 28.84C245.006 28.9467 244.993 29.0933 244.993 29.28C244.993 29.92 245.219 30.4933 245.673 31C246.046 31.4533 246.526 31.76 247.113 31.92C247.699 32.0533 248.539 32.16 249.633 32.24C250.513 32.2933 251.259 32.3733 251.873 32.48C252.513 32.5867 253.113 32.7867 253.673 33.08C255.406 34.0133 256.273 35.6 256.273 37.84C256.273 38.6133 256.113 39.36 255.793 40.08C255.499 40.7733 255.073 41.3867 254.513 41.92C253.259 43.1467 251.539 43.76 249.353 43.76C247.219 43.76 245.486 43.16 244.153 41.96C243.113 40.9467 242.473 39.6933 242.233 38.2H245.033Z" fill="#003485"/>
<path d="M261.558 35.04C261.878 36.7467 262.718 38.1733 264.078 39.32C265.438 40.44 266.998 41 268.758 41C270.065 41 271.265 40.6933 272.358 40.08C273.451 39.4667 274.331 38.6267 274.998 37.56L277.358 38.92C276.451 40.3867 275.238 41.56 273.718 42.44C272.198 43.32 270.545 43.76 268.758 43.76C266.945 43.76 265.265 43.3067 263.718 42.4C262.171 41.4933 260.945 40.2667 260.038 38.72C259.131 37.1733 258.678 35.4933 258.678 33.68C258.678 31.84 259.131 30.16 260.038 28.64C260.945 27.0933 262.171 25.8667 263.718 24.96C265.265 24.0533 266.945 23.6 268.758 23.6C270.571 23.6 272.251 24.0533 273.798 24.96C275.345 25.8667 276.571 27.0933 277.478 28.64C278.385 30.16 278.838 31.84 278.838 33.68C278.838 34 278.811 34.4533 278.758 35.04H261.558ZM268.758 26.32C267.585 26.32 266.438 26.6 265.318 27.16C264.198 27.6933 263.291 28.44 262.598 29.4C261.905 30.3333 261.558 31.3467 261.558 32.44H275.958C275.958 31.3467 275.611 30.3333 274.918 29.4C274.225 28.44 273.318 27.6933 272.198 27.16C271.105 26.6 269.958 26.32 268.758 26.32Z" fill="#003485"/>
</svg>
